<svg xmlns="http://www.w3.org/2000/svg" width="2032" height="774" viewBox="0 0 2032 774"><defs><linearGradient id="n" x1="0" y1="0" x2=".42" y2="1"><stop stop-color="#111d2d"/><stop offset=".55" stop-color="#0b1727"/><stop offset="1" stop-color="#111c2e"/></linearGradient></defs><g fill="url(#n)"><path d="M656 126C665 132 661 141 651 147L291 347C281 353 281 360 291 366L608 545C615 549 615 555 607 560C560 589 507 582 463 557L224 421C206 411 200 398 200 381V351C200 323 213 298 238 283L509 120C550 96 616 96 656 126Z"/><path d="M668 151C672 149 674 154 674 160V207C674 244 658 271 630 289L481 384V306C481 277 495 253 522 237L668 151Z"/><path d="M541 372C545 370 549 370 554 373L646 425C663 435 670 451 670 471V534C670 541 667 543 661 539L457 425C452 422 452 418 457 414L541 372Z"/></g><text x="724" y="432" fill="url(#n)" font-family="Arial,Helvetica,sans-serif" font-size="278" font-weight="700" letter-spacing="-13">NexMoni</text></svg>
